<svg width="142" height="164" viewBox="0 0 142 164" fill="none" xmlns="http://www.w3.org/2000/svg">
<path d="M71 0L142 41V123L71 164L0 123V41L71 0Z" fill="#0C447C"/>
<path d="M71 0L142 41L133 46L71 10V0Z" fill="#EF9F27"/>
<path d="M142 123L71 164V154L133 118L142 123Z" fill="#EF9F27"/>
<path d="M0 41V123L9 118V46L0 41Z" fill="#EF9F27"/>
<path opacity="0.2" d="M71 10L133 46V118L71 154L9 118V46L71 10Z" stroke="white"/>
<path d="M81.1482 64.5874C80.9266 62.353 79.9756 60.6172 78.2952 59.38C76.6148 58.1428 74.3343 57.5241 71.4536 57.5241C69.4962 57.5241 67.8435 57.8011 66.4955 58.3551C65.1475 58.8906 64.1134 59.6385 63.3932 60.5987C62.6915 61.5589 62.3406 62.6484 62.3406 63.8672C62.3037 64.8828 62.5161 65.7692 62.9777 66.5263C63.4578 67.2834 64.1134 67.9389 64.9443 68.4929C65.7753 69.0284 66.7355 69.4993 67.825 69.9055C68.9145 70.2933 70.0779 70.6257 71.3151 70.9027L76.4117 72.1214C78.8861 72.6754 81.1574 73.4141 83.2256 74.3374C85.2938 75.2607 87.085 76.3963 88.5992 77.7443C90.1134 79.0923 91.286 80.6804 92.1169 82.5085C92.9664 84.3366 93.4003 86.4325 93.4188 88.7962C93.4003 92.2678 92.5139 95.2777 90.7597 97.826C89.0239 100.356 86.5125 102.322 83.2256 103.726C79.9571 105.111 76.0146 105.803 71.3982 105.803C66.8186 105.803 62.83 105.102 59.4323 103.698C56.053 102.295 53.4124 100.217 51.5104 97.4659C49.6269 94.696 48.6389 91.2706 48.5466 87.1896H60.1524C60.2817 89.0916 60.8264 90.6797 61.7867 91.9538C62.7654 93.2095 64.0672 94.1605 65.6922 94.8068C67.3357 95.4347 69.1915 95.7486 71.2597 95.7486C73.2909 95.7486 75.0544 95.4531 76.5502 94.8622C78.0644 94.2713 79.237 93.4496 80.0679 92.397C80.8989 91.3445 81.3144 90.1349 81.3144 88.7685C81.3144 87.4943 80.9358 86.4233 80.1787 85.5554C79.4401 84.6875 78.3506 83.9489 76.9102 83.3395C75.4884 82.7301 73.7433 82.1761 71.6752 81.6776L65.4983 80.1264C60.7156 78.9631 56.9394 77.1442 54.1695 74.6697C51.3996 72.1953 50.0239 68.8622 50.0423 64.6705C50.0239 61.2358 50.9379 58.2351 52.7845 55.6683C54.6496 53.1016 57.2071 51.098 60.4571 49.6577C63.7071 48.2173 67.4003 47.4972 71.5367 47.4972C75.7469 47.4972 79.4216 48.2173 82.5608 49.6577C85.7185 51.098 88.1745 53.1016 89.9287 55.6683C91.683 58.2351 92.5878 61.2081 92.6432 64.5874H81.1482Z" fill="white"/>
</svg>
