<svg width="218" height="85" viewBox="0 0 218 85" fill="none" xmlns="http://www.w3.org/2000/svg">
<path d="M23.8026 23.0582C23.6548 21.5687 23.0208 20.4115 21.9006 19.5866C20.7803 18.7618 19.2599 18.3494 17.3395 18.3494C16.0346 18.3494 14.9328 18.5341 14.0341 18.9034C13.1354 19.2604 12.446 19.759 11.9659 20.3991C11.4981 21.0393 11.2642 21.7656 11.2642 22.5781C11.2396 23.2552 11.3812 23.8461 11.6889 24.3509C12.009 24.8556 12.446 25.2926 13 25.6619C13.554 26.0189 14.1941 26.3329 14.9205 26.6037C15.6468 26.8622 16.4223 27.0838 17.2472 27.2685L20.6449 28.081C22.2945 28.4503 23.8087 28.9427 25.1875 29.5582C26.5663 30.1738 27.7604 30.9309 28.7699 31.8295C29.7794 32.7282 30.5611 33.7869 31.1151 35.0057C31.6813 36.2244 31.9706 37.6217 31.983 39.1974C31.9706 41.5118 31.3797 43.5185 30.2102 45.2173C29.053 46.9039 27.3788 48.215 25.1875 49.1506C23.0085 50.0739 20.3802 50.5355 17.3026 50.5355C14.2495 50.5355 11.5904 50.0677 9.32528 49.1321C7.07244 48.1965 5.31203 46.8116 4.04403 44.9773C2.78835 43.1307 2.12973 40.8471 2.06818 38.1264H9.8054C9.89157 39.3944 10.2547 40.4531 10.8949 41.3026C11.5473 42.1397 12.4152 42.7737 13.4986 43.2045C14.5942 43.6231 15.8314 43.8324 17.2102 43.8324C18.5644 43.8324 19.7401 43.6354 20.7372 43.2415C21.7467 42.8475 22.5284 42.2997 23.0824 41.598C23.6364 40.8963 23.9134 40.09 23.9134 39.179C23.9134 38.3295 23.661 37.6155 23.1562 37.0369C22.6638 36.4583 21.9375 35.9659 20.9773 35.5597C20.0294 35.1534 18.866 34.7841 17.4872 34.4517L13.3693 33.4176C10.1809 32.642 7.66335 31.4295 5.81676 29.7798C3.97017 28.1302 3.05303 25.9081 3.06534 23.1136C3.05303 20.8239 3.66241 18.8234 4.89347 17.1122C6.13684 15.401 7.84186 14.0653 10.0085 13.1051C12.1752 12.1449 14.6373 11.6648 17.3949 11.6648C20.2017 11.6648 22.6515 12.1449 24.7443 13.1051C26.8494 14.0653 28.4867 15.401 29.6562 17.1122C30.8258 18.8234 31.429 20.8054 31.4659 23.0582H23.8026ZM37.3612 50V12.1818H45.3569V28.8565H45.8555L59.4648 12.1818H69.0487L55.0146 29.1151L69.2148 50H59.6495L49.2901 34.4517L45.3569 39.2528V50H37.3612ZM81.2085 12.1818V50H73.2127V12.1818H81.2085ZM87.7869 50V12.1818H95.7827V43.4077H111.996V50H87.7869Z" fill="#185FA5"/>
<path d="M117.291 50V12.1818H132.211C135.08 12.1818 137.523 12.7296 139.542 13.8253C141.561 14.9086 143.1 16.4167 144.159 18.3494C145.23 20.2699 145.765 22.4858 145.765 24.9972C145.765 27.5085 145.224 29.7244 144.14 31.6449C143.057 33.5653 141.487 35.0611 139.431 36.1321C137.388 37.2031 134.913 37.7386 132.008 37.7386H122.498V31.331H130.716C132.254 31.331 133.522 31.0663 134.52 30.5369C135.529 29.9953 136.28 29.2505 136.772 28.3026C137.277 27.3423 137.529 26.2405 137.529 24.9972C137.529 23.7415 137.277 22.6458 136.772 21.7102C136.28 20.7623 135.529 20.0298 134.52 19.5128C133.51 18.9834 132.23 18.7188 130.679 18.7188H125.287V50H117.291ZM150.959 50V12.1818H176.442V18.7741H158.955V27.7855H175.131V34.3778H158.955V43.4077H176.516V50H150.959ZM190.296 12.1818L197.922 25.071H198.218L205.881 12.1818H214.911L203.37 31.0909L215.169 50H205.973L198.218 37.0923H197.922L190.167 50H181.007L192.844 31.0909L181.229 12.1818H190.296Z" fill="#EF9F27"/>
<path d="M7.80114 67.3636C7.74148 66.8598 7.49953 66.4688 7.07528 66.1903C6.65104 65.9119 6.13068 65.7727 5.5142 65.7727C5.06345 65.7727 4.66903 65.8456 4.33097 65.9915C3.99621 66.1373 3.73438 66.3378 3.54545 66.593C3.35985 66.8482 3.26705 67.1383 3.26705 67.4631C3.26705 67.7348 3.33168 67.9685 3.46094 68.1641C3.59351 68.3563 3.76255 68.517 3.96804 68.6463C4.17353 68.7723 4.38897 68.8767 4.61435 68.9595C4.83973 69.0391 5.04688 69.1037 5.2358 69.1534L6.26989 69.4318C6.53504 69.5014 6.83002 69.5975 7.15483 69.7202C7.48295 69.8428 7.79616 70.0102 8.09446 70.2223C8.39607 70.4311 8.64465 70.6996 8.8402 71.0277C9.03575 71.3558 9.13352 71.7585 9.13352 72.2358C9.13352 72.786 8.98935 73.2831 8.70099 73.7273C8.41596 74.1714 7.99834 74.5244 7.44815 74.7862C6.90128 75.0481 6.23674 75.179 5.45455 75.179C4.72538 75.179 4.09399 75.0613 3.56037 74.826C3.03007 74.5907 2.61245 74.2625 2.30753 73.8416C2.00592 73.4207 1.83523 72.9318 1.79545 72.375H3.06818C3.10133 72.7595 3.23059 73.0777 3.45597 73.3295C3.68466 73.5781 3.97301 73.7637 4.32102 73.8864C4.67235 74.0057 5.05019 74.0653 5.45455 74.0653C5.92519 74.0653 6.34777 73.9891 6.7223 73.8366C7.09683 73.6809 7.39347 73.4654 7.61222 73.1903C7.83097 72.9119 7.94034 72.5871 7.94034 72.2159C7.94034 71.8778 7.84588 71.6027 7.65696 71.3906C7.46804 71.1785 7.21946 71.0062 6.91122 70.8736C6.60298 70.741 6.26989 70.625 5.91193 70.5256L4.65909 70.1676C3.86364 69.9389 3.2339 69.6125 2.76989 69.1882C2.30587 68.764 2.07386 68.2088 2.07386 67.5227C2.07386 66.9527 2.22798 66.4555 2.53622 66.0312C2.84777 65.6037 3.26539 65.2723 3.78906 65.0369C4.31605 64.7983 4.90436 64.679 5.55398 64.679C6.21023 64.679 6.79356 64.7966 7.30398 65.032C7.81439 65.264 8.21875 65.5821 8.51705 65.9865C8.81866 66.3909 8.97775 66.8499 8.99432 67.3636H7.80114ZM16.9847 64.8182H18.4563L21.9165 73.2699H22.0358L25.4961 64.8182H26.9676V75H25.8142V67.2642H25.7148L22.533 75H21.4193L18.2375 67.2642H18.1381V75H16.9847V64.8182ZM35.6814 75H34.3888L38.1274 64.8182H39.4001L43.1388 75H41.8462L38.8035 66.429H38.724L35.6814 75ZM36.1587 71.0227H41.3689V72.1165H36.1587V71.0227ZM50.5487 75V64.8182H53.989C54.7845 64.8182 55.4374 64.9541 55.9479 65.2259C56.4583 65.4943 56.8361 65.8639 57.0814 66.3345C57.3266 66.8052 57.4493 67.3404 57.4493 67.9403C57.4493 68.5402 57.3266 69.0722 57.0814 69.5362C56.8361 70.0002 56.4599 70.3648 55.9528 70.63C55.4457 70.8918 54.7978 71.0227 54.0089 71.0227H51.2248V69.9091H53.9692C54.5127 69.9091 54.9502 69.8295 55.2817 69.6705C55.6164 69.5114 55.8584 69.286 56.0075 68.9943C56.16 68.6993 56.2362 68.348 56.2362 67.9403C56.2362 67.5327 56.16 67.1764 56.0075 66.8714C55.855 66.5665 55.6114 66.3312 55.2767 66.1655C54.9419 65.9964 54.4995 65.9119 53.9493 65.9119H51.7817V75H50.5487ZM55.3413 70.4261L57.847 75H56.4152L53.9493 70.4261H55.3413ZM64.771 65.9119V64.8182H72.4073V65.9119H69.2056V75H67.9727V65.9119H64.771ZM95.4639 67.3636C95.4042 66.8598 95.1623 66.4688 94.738 66.1903C94.3138 65.9119 93.7934 65.7727 93.177 65.7727C92.7262 65.7727 92.3318 65.8456 91.9937 65.9915C91.659 66.1373 91.3971 66.3378 91.2082 66.593C91.0226 66.8482 90.9298 67.1383 90.9298 67.4631C90.9298 67.7348 90.9944 67.9685 91.1237 68.1641C91.2563 68.3563 91.4253 68.517 91.6308 68.6463C91.8363 68.7723 92.0517 68.8767 92.2771 68.9595C92.5025 69.0391 92.7096 69.1037 92.8985 69.1534L93.9326 69.4318C94.1978 69.5014 94.4928 69.5975 94.8176 69.7202C95.1457 69.8428 95.4589 70.0102 95.7572 70.2223C96.0588 70.4311 96.3074 70.6996 96.5029 71.0277C96.6985 71.3558 96.7963 71.7585 96.7963 72.2358C96.7963 72.786 96.6521 73.2831 96.3637 73.7273C96.0787 74.1714 95.6611 74.5244 95.1109 74.7862C94.564 75.0481 93.8995 75.179 93.1173 75.179C92.3881 75.179 91.7567 75.0613 91.2231 74.826C90.6928 74.5907 90.2752 74.2625 89.9703 73.8416C89.6687 73.4207 89.498 72.9318 89.4582 72.375H90.7309C90.7641 72.7595 90.8933 73.0777 91.1187 73.3295C91.3474 73.5781 91.6358 73.7637 91.9838 73.8864C92.3351 74.0057 92.7129 74.0653 93.1173 74.0653C93.5879 74.0653 94.0105 73.9891 94.3851 73.8366C94.7596 73.6809 95.0562 73.4654 95.275 73.1903C95.4937 72.9119 95.6031 72.5871 95.6031 72.2159C95.6031 71.8778 95.5086 71.6027 95.3197 71.3906C95.1308 71.1785 94.8822 71.0062 94.574 70.8736C94.2657 70.741 93.9326 70.625 93.5747 70.5256L92.3218 70.1676C91.5264 69.9389 90.8967 69.6125 90.4326 69.1882C89.9686 68.764 89.7366 68.2088 89.7366 67.5227C89.7366 66.9527 89.8907 66.4555 90.199 66.0312C90.5105 65.6037 90.9281 65.2723 91.4518 65.0369C91.9788 64.7983 92.5671 64.679 93.2167 64.679C93.873 64.679 94.4563 64.7966 94.9667 65.032C95.4771 65.264 95.8815 65.5821 96.1798 65.9865C96.4814 66.3909 96.6405 66.8499 96.6571 67.3636H95.4639ZM113.238 69.9091C113.238 70.983 113.044 71.911 112.657 72.6932C112.269 73.4754 111.737 74.0786 111.061 74.5028C110.385 74.9271 109.612 75.1392 108.744 75.1392C107.876 75.1392 107.103 74.9271 106.427 74.5028C105.751 74.0786 105.219 73.4754 104.831 72.6932C104.444 71.911 104.25 70.983 104.25 69.9091C104.25 68.8352 104.444 67.9072 104.831 67.125C105.219 66.3428 105.751 65.7396 106.427 65.3153C107.103 64.8911 107.876 64.679 108.744 64.679C109.612 64.679 110.385 64.8911 111.061 65.3153C111.737 65.7396 112.269 66.3428 112.657 67.125C113.044 67.9072 113.238 68.8352 113.238 69.9091ZM112.045 69.9091C112.045 69.0275 111.898 68.2834 111.603 67.6768C111.311 67.0703 110.915 66.6113 110.414 66.2997C109.917 65.9882 109.361 65.8324 108.744 65.8324C108.128 65.8324 107.569 65.9882 107.069 66.2997C106.571 66.6113 106.175 67.0703 105.88 67.6768C105.589 68.2834 105.443 69.0275 105.443 69.9091C105.443 70.7907 105.589 71.5348 105.88 72.1413C106.175 72.7479 106.571 73.2069 107.069 73.5185C107.569 73.83 108.128 73.9858 108.744 73.9858C109.361 73.9858 109.917 73.83 110.414 73.5185C110.915 73.2069 111.311 72.7479 111.603 72.1413C111.898 71.5348 112.045 70.7907 112.045 69.9091ZM121.135 75V64.8182H122.368V73.9062H127.101V75H121.135ZM141.516 64.8182H142.749V71.5597C142.749 72.2557 142.585 72.8771 142.257 73.424C141.932 73.9676 141.473 74.3968 140.88 74.7116C140.287 75.0232 139.591 75.179 138.792 75.179C137.993 75.179 137.297 75.0232 136.704 74.7116C136.111 74.3968 135.65 73.9676 135.322 73.424C134.997 72.8771 134.835 72.2557 134.835 71.5597V64.8182H136.067V71.4602C136.067 71.9574 136.177 72.3999 136.396 72.7876C136.614 73.1721 136.926 73.4754 137.33 73.6974C137.738 73.9162 138.225 74.0256 138.792 74.0256C139.359 74.0256 139.846 73.9162 140.254 73.6974C140.661 73.4754 140.973 73.1721 141.188 72.7876C141.407 72.3999 141.516 71.9574 141.516 71.4602V64.8182ZM150.479 65.9119V64.8182H158.115V65.9119H154.913V75H153.68V65.9119H150.479ZM167.075 64.8182V75H165.842V64.8182H167.075ZM183.962 69.9091C183.962 70.983 183.768 71.911 183.38 72.6932C182.992 73.4754 182.46 74.0786 181.784 74.5028C181.108 74.9271 180.336 75.1392 179.468 75.1392C178.599 75.1392 177.827 74.9271 177.151 74.5028C176.475 74.0786 175.943 73.4754 175.555 72.6932C175.167 71.911 174.973 70.983 174.973 69.9091C174.973 68.8352 175.167 67.9072 175.555 67.125C175.943 66.3428 176.475 65.7396 177.151 65.3153C177.827 64.8911 178.599 64.679 179.468 64.679C180.336 64.679 181.108 64.8911 181.784 65.3153C182.46 65.7396 182.992 66.3428 183.38 67.125C183.768 67.9072 183.962 68.8352 183.962 69.9091ZM182.769 69.9091C182.769 69.0275 182.621 68.2834 182.326 67.6768C182.035 67.0703 181.638 66.6113 181.138 66.2997C180.641 65.9882 180.084 65.8324 179.468 65.8324C178.851 65.8324 178.293 65.9882 177.792 66.2997C177.295 66.6113 176.899 67.0703 176.604 67.6768C176.312 68.2834 176.166 69.0275 176.166 69.9091C176.166 70.7907 176.312 71.5348 176.604 72.1413C176.899 72.7479 177.295 73.2069 177.792 73.5185C178.293 73.83 178.851 73.9858 179.468 73.9858C180.084 73.9858 180.641 73.83 181.138 73.5185C181.638 73.2069 182.035 72.7479 182.326 72.1413C182.621 71.5348 182.769 70.7907 182.769 69.9091ZM199.933 64.8182V75H198.74L193.191 67.0057H193.092V75H191.859V64.8182H193.052L198.62 72.8324H198.72V64.8182H199.933ZM213.792 67.3636C213.733 66.8598 213.491 66.4688 213.066 66.1903C212.642 65.9119 212.122 65.7727 211.505 65.7727C211.055 65.7727 210.66 65.8456 210.322 65.9915C209.987 66.1373 209.725 66.3378 209.537 66.593C209.351 66.8482 209.258 67.1383 209.258 67.4631C209.258 67.7348 209.323 67.9685 209.452 68.1641C209.585 68.3563 209.754 68.517 209.959 68.6463C210.165 68.7723 210.38 68.8767 210.605 68.9595C210.831 69.0391 211.038 69.1037 211.227 69.1534L212.261 69.4318C212.526 69.5014 212.821 69.5975 213.146 69.7202C213.474 69.8428 213.787 70.0102 214.086 70.2223C214.387 70.4311 214.636 70.6996 214.831 71.0277C215.027 71.3558 215.125 71.7585 215.125 72.2358C215.125 72.786 214.98 73.2831 214.692 73.7273C214.407 74.1714 213.989 74.5244 213.439 74.7862C212.892 75.0481 212.228 75.179 211.446 75.179C210.716 75.179 210.085 75.0613 209.551 74.826C209.021 74.5907 208.604 74.2625 208.299 73.8416C207.997 73.4207 207.826 72.9318 207.787 72.375H209.059C209.092 72.7595 209.222 73.0777 209.447 73.3295C209.676 73.5781 209.964 73.7637 210.312 73.8864C210.663 74.0057 211.041 74.0653 211.446 74.0653C211.916 74.0653 212.339 73.9891 212.713 73.8366C213.088 73.6809 213.385 73.4654 213.603 73.1903C213.822 72.9119 213.931 72.5871 213.931 72.2159C213.931 71.8778 213.837 71.6027 213.648 71.3906C213.459 71.1785 213.211 71.0062 212.902 70.8736C212.594 70.741 212.261 70.625 211.903 70.5256L210.65 70.1676C209.855 69.9389 209.225 69.6125 208.761 69.1882C208.297 68.764 208.065 68.2088 208.065 67.5227C208.065 66.9527 208.219 66.4555 208.527 66.0312C208.839 65.6037 209.256 65.2723 209.78 65.0369C210.307 64.7983 210.895 64.679 211.545 64.679C212.201 64.679 212.785 64.7966 213.295 65.032C213.805 65.264 214.21 65.5821 214.508 65.9865C214.81 66.3909 214.969 66.8499 214.985 67.3636H213.792Z" fill="white"/>
<path d="M214.29 83H2.71C2.31788 83 2 83.4477 2 84C2 84.5523 2.31788 85 2.71 85H214.29C214.682 85 215 84.5523 215 84C215 83.4477 214.682 83 214.29 83Z" fill="#185FA5"/>
<path d="M71.6188 83H2.88125C2.39455 83 2 83.4477 2 84C2 84.5523 2.39455 85 2.88125 85H71.6188C72.1055 85 72.5 84.5523 72.5 84C72.5 83.4477 72.1055 83 71.6188 83Z" fill="#EF9F27"/>
</svg>
